<svg width="1200" height="800" viewBox="0 0 1200 800" fill="none" xmlns="http://www.w3.org/2000/svg" role="img" aria-labelledby="title desc">
  <title id="title">Personal portfolio interface preview</title>
  <desc id="desc">Stylized preview of a personal portfolio landing page with profile, sections, and project cards</desc>
  <rect width="1200" height="800" rx="48" fill="#FBF7EF"/>
  <circle cx="1018" cy="128" r="170" fill="#DCFCE7" opacity="0.55"/>
  <circle cx="202" cy="682" r="190" fill="#FFFFFF" opacity="0.74"/>
  <path d="M-40 150C92 92 194 110 322 166C454 224 588 190 732 124C852 68 978 82 1248 178" stroke="#15803D" stroke-opacity="0.12" stroke-width="4"/>
  <path d="M-48 252C86 184 204 212 342 270C498 336 620 294 774 232C908 178 1024 190 1246 280" stroke="#15803D" stroke-opacity="0.1" stroke-width="4"/>

  <g filter="url(#shadow)">
    <rect x="96" y="88" width="1008" height="624" rx="36" fill="#FFFFFF" stroke="#E5E5E5" stroke-width="3"/>
  </g>

  <rect x="96" y="88" width="1008" height="86" rx="36" fill="#FFFCF7"/>
  <path d="M132 174H1068" stroke="#E5E5E5" stroke-width="3"/>
  <circle cx="158" cy="131" r="13" fill="#15803D"/>
  <circle cx="198" cy="131" r="13" fill="#D9F99D"/>
  <circle cx="238" cy="131" r="13" fill="#BBF7D0"/>
  <rect x="298" y="116" width="166" height="28" rx="14" fill="#171717"/>
  <rect x="718" y="121" width="78" height="18" rx="9" fill="#15803D" opacity="0.24"/>
  <rect x="824" y="121" width="78" height="18" rx="9" fill="#15803D" opacity="0.24"/>
  <rect x="930" y="121" width="78" height="18" rx="9" fill="#15803D" opacity="0.24"/>

  <rect x="154" y="232" width="420" height="228" rx="28" fill="#FBF7EF"/>
  <rect x="194" y="284" width="210" height="24" rx="12" fill="#15803D"/>
  <rect x="194" y="326" width="318" height="18" rx="9" fill="#171717"/>
  <rect x="194" y="364" width="276" height="14" rx="7" fill="#737373"/>
  <rect x="194" y="394" width="238" height="14" rx="7" fill="#A3A3A3"/>
  <rect x="194" y="424" width="110" height="28" rx="14" fill="#171717"/>
  <rect x="322" y="424" width="110" height="28" rx="14" fill="#15803D"/>

  <rect x="654" y="226" width="360" height="244" rx="30" fill="#171717"/>
  <circle cx="834" cy="336" r="86" fill="#15803D"/>
  <circle cx="834" cy="336" r="66" stroke="#FBF7EF" stroke-opacity="0.18" stroke-width="8"/>
  <path d="M806 306L772 336L806 366" stroke="#FBF7EF" stroke-width="18" stroke-linecap="round" stroke-linejoin="round"/>
  <path d="M862 306L896 336L862 366" stroke="#FBF7EF" stroke-width="18" stroke-linecap="round" stroke-linejoin="round"/>
  <path d="M846 292L822 380" stroke="#BBF7D0" stroke-width="16" stroke-linecap="round"/>

  <rect x="154" y="524" width="260" height="122" rx="24" fill="#FFFFFF" stroke="#E5E5E5" stroke-width="3"/>
  <rect x="190" y="556" width="82" height="14" rx="7" fill="#15803D"/>
  <rect x="190" y="588" width="176" height="12" rx="6" fill="#737373"/>
  <rect x="190" y="616" width="132" height="12" rx="6" fill="#A3A3A3"/>

  <rect x="470" y="524" width="260" height="122" rx="24" fill="#FFFFFF" stroke="#E5E5E5" stroke-width="3"/>
  <rect x="506" y="556" width="82" height="14" rx="7" fill="#15803D"/>
  <rect x="506" y="588" width="176" height="12" rx="6" fill="#737373"/>
  <rect x="506" y="616" width="132" height="12" rx="6" fill="#A3A3A3"/>

  <rect x="786" y="524" width="260" height="122" rx="24" fill="#FFFFFF" stroke="#E5E5E5" stroke-width="3"/>
  <rect x="822" y="556" width="82" height="14" rx="7" fill="#15803D"/>
  <rect x="822" y="588" width="176" height="12" rx="6" fill="#737373"/>
  <rect x="822" y="616" width="132" height="12" rx="6" fill="#A3A3A3"/>

  <defs>
    <filter id="shadow" x="66" y="62" width="1068" height="684" filterUnits="userSpaceOnUse" color-interpolation-filters="sRGB">
      <feFlood flood-opacity="0" result="BackgroundImageFix"/>
      <feColorMatrix in="SourceAlpha" type="matrix" values="0 0 0 0 0 0 0 0 0 0 0 0 0 0 0 0 0 0 127 0" result="hardAlpha"/>
      <feOffset dy="10"/>
      <feGaussianBlur stdDeviation="14"/>
      <feComposite in2="hardAlpha" operator="out"/>
      <feColorMatrix type="matrix" values="0 0 0 0 0.09 0 0 0 0 0.09 0 0 0 0 0.09 0 0 0 0.12 0"/>
      <feBlend mode="normal" in2="BackgroundImageFix" result="effect1_dropShadow"/>
      <feBlend mode="normal" in="SourceGraphic" in2="effect1_dropShadow" result="shape"/>
    </filter>
  </defs>
</svg>
